<?xml version="1.0"?>
<!DOCTYPE svg PUBLIC "-//W3C//DTD SVG 1.1//EN" "http://www.w3.org/Graphics/SVG/1.1/DTD/svg11.dtd">
<svg xmlns="http://www.w3.org/2000/svg" xmlns:xlink="http://www.w3.org/1999/xlink" id="Layer_1" style="enable-background:new 0 0 64 64;" version="1.1" viewBox="0 0 64 64" xml:space="preserve"><style type="text/css">
	.st0{fill:#134563;}
</style><g><g id="Icon-Plus" transform="translate(28.000000, 278.000000)"><path class="st0" d="M4-222.1c-13.2,0-23.9-10.7-23.9-23.9c0-13.2,10.7-23.9,23.9-23.9s23.9,10.7,23.9,23.9     C27.9-232.8,17.2-222.1,4-222.1L4-222.1z M4-267.3c-11.7,0-21.3,9.6-21.3,21.3s9.6,21.3,21.3,21.3s21.3-9.6,21.3-21.3     S15.7-267.3,4-267.3L4-267.3z" id="Fill-38" style="fill: #134563;"/><polygon class="st0" id="Fill-39" points="-8.7,-247.4 16.7,-247.4 16.7,-244.6 -8.7,-244.6    " style="fill: #134563;"/><polygon class="st0" id="Fill-40" points="2.6,-258.7 5.4,-258.7 5.4,-233.3 2.6,-233.3    " style="fill: #134563;"/></g></g>
	<metadata>
		<rdf:RDF xmlns:rdf="http://www.w3.org/1999/02/22-rdf-syntax-ns#" xmlns:rdfs="http://www.w3.org/2000/01/rdf-schema#" xmlns:dc="http://purl.org/dc/elements/1.1/">
			<rdf:Description about="https://iconscout.com/legal#licenses" dc:title="1814113,add,more,plus" dc:description="1814113,add,more,plus" dc:publisher="Iconscout" dc:date="2017-02-06" dc:format="image/svg+xml" dc:language="en">
				<dc:creator>
					<rdf:Bag>
						<rdf:li>Evil Icons</rdf:li>
					</rdf:Bag>
				</dc:creator>
			</rdf:Description>
		</rdf:RDF>
    </metadata></svg>
