<?xml version="1.0"?>
<!DOCTYPE svg PUBLIC "-//W3C//DTD SVG 1.1//EN" "http://www.w3.org/Graphics/SVG/1.1/DTD/svg11.dtd">
<svg xmlns="http://www.w3.org/2000/svg" xmlns:xlink="http://www.w3.org/1999/xlink" id="Layer_1" style="enable-background:new 0 0 64 64;" version="1.1" viewBox="0 0 64 64" xml:space="preserve"><style type="text/css">
	.st0{fill:#134563;}
</style><g><g id="Icon-Bell" transform="translate(178.000000, 478.000000)"><path class="st0" d="M-122-429.1c-9.1,0-10.3-8.5-11.5-16.7c-1.3-8.9-2.5-17.2-12.5-17.2s-11.2,8.4-12.5,17.2     c-1.2,8.2-2.4,16.7-11.5,16.7v-2.6c6.4,0,7.6-5.4,8.9-14.4c1.2-8.7,2.8-19.5,15.1-19.5s13.9,10.8,15.1,19.5     c1.3,9,2.5,14.4,8.9,14.4V-429.1" id="Fill-114" style="fill: #134563;"/><path class="st0" d="M-146-423.5c-3.8,0-7-3.1-7-7h2.6c0,2.4,1.9,4.3,4.3,4.3s4.3-1.9,4.3-4.3h2.6     C-139-426.6-142.2-423.5-146-423.5" id="Fill-115" style="fill: #134563;"/><polygon class="st0" id="Fill-116" points="-170,-431.8 -122,-431.8 -122,-429 -170,-429    " style="fill: #134563;"/><path class="st0" d="M-143.2-465.7c0,1.6-1.3,2.1-2.8,2.1s-2.8-0.6-2.8-2.1s1.3-2.8,2.8-2.8     S-143.2-467.3-143.2-465.7" id="Fill-117" style="fill: #134563;"/></g></g>
	<metadata>
		<rdf:RDF xmlns:rdf="http://www.w3.org/1999/02/22-rdf-syntax-ns#" xmlns:rdfs="http://www.w3.org/2000/01/rdf-schema#" xmlns:dc="http://purl.org/dc/elements/1.1/">
			<rdf:Description about="https://iconscout.com/legal#licenses" dc:title="1814091,alarm,bell,sound" dc:description="1814091,alarm,bell,sound" dc:publisher="Iconscout" dc:date="2017-02-06" dc:format="image/svg+xml" dc:language="en">
				<dc:creator>
					<rdf:Bag>
						<rdf:li>Evil Icons</rdf:li>
					</rdf:Bag>
				</dc:creator>
			</rdf:Description>
		</rdf:RDF>
    </metadata></svg>
