<?xml version="1.0"?>
<!DOCTYPE svg PUBLIC "-//W3C//DTD SVG 1.1//EN" "http://www.w3.org/Graphics/SVG/1.1/DTD/svg11.dtd">
<svg xmlns="http://www.w3.org/2000/svg" xmlns:xlink="http://www.w3.org/1999/xlink" id="Layer_1" style="enable-background:new 0 0 64 64;" version="1.1" viewBox="0 0 64 64" xml:space="preserve"><style type="text/css">
	.st0{fill:#134563;}
</style><g><g id="Icon-Arrow-Left" transform="translate(28.000000, 328.000000)"><path class="st0" d="M4-272.1c-13.2,0-23.9-10.7-23.9-23.9S-9.2-319.9,4-319.9s23.9,10.7,23.9,23.9     S17.2-272.1,4-272.1L4-272.1z M4-317.3c-11.7,0-21.3,9.6-21.3,21.3s9.6,21.3,21.3,21.3s21.3-9.6,21.3-21.3S15.7-317.3,4-317.3     L4-317.3z" id="Fill-25" style="fill: #134563;"/><polyline class="st0" id="Fill-26" points="4.5,-282.3 -9.2,-296 4.5,-309.7 6.3,-307.8 -5.4,-296 6.3,-284.2 4.5,-282.3    " style="fill: #134563;"/><polygon class="st0" id="Fill-27" points="-7.3,-297.4 16.7,-297.4 16.7,-294.6 -7.3,-294.6    " style="fill: #134563;"/></g></g>
	<metadata>
		<rdf:RDF xmlns:rdf="http://www.w3.org/1999/02/22-rdf-syntax-ns#" xmlns:rdfs="http://www.w3.org/2000/01/rdf-schema#" xmlns:dc="http://purl.org/dc/elements/1.1/">
			<rdf:Description about="https://iconscout.com/legal#licenses" dc:title="1814083,arrow,left" dc:description="1814083,arrow,left" dc:publisher="Iconscout" dc:date="2017-02-06" dc:format="image/svg+xml" dc:language="en">
				<dc:creator>
					<rdf:Bag>
						<rdf:li>Evil Icons</rdf:li>
					</rdf:Bag>
				</dc:creator>
			</rdf:Description>
		</rdf:RDF>
    </metadata></svg>
