<?xml version="1.0"?>
<!DOCTYPE svg PUBLIC "-//W3C//DTD SVG 1.1//EN" "http://www.w3.org/Graphics/SVG/1.1/DTD/svg11.dtd">
<svg xmlns="http://www.w3.org/2000/svg" xmlns:xlink="http://www.w3.org/1999/xlink" id="Layer_1" style="enable-background:new 0 0 64 64;" version="1.1" viewBox="0 0 64 64" xml:space="preserve"><style type="text/css">
	.st0{fill:#134563;}
</style><g><g id="Icon-Exclamation" transform="translate(228.000000, 278.000000)"><path class="st0" d="M-196-222.1c-13.2,0-23.9-10.7-23.9-23.9c0-13.2,10.7-23.9,23.9-23.9s23.9,10.7,23.9,23.9     C-172.1-232.8-182.8-222.1-196-222.1L-196-222.1z M-196-267.3c-11.7,0-21.3,9.6-21.3,21.3s9.6,21.3,21.3,21.3s21.3-9.6,21.3-21.3     S-184.3-267.3-196-267.3L-196-267.3z" id="Fill-49" style="fill: #134563;"/><polygon class="st0" id="Fill-50" points="-197.4,-236.1 -194.6,-236.1 -194.6,-233.3 -197.4,-233.3    " style="fill: #134563;"/><polyline class="st0" id="Fill-51" points="-195.2,-238.9 -196.8,-238.9 -197.4,-250.2 -197.4,-258.7 -194.6,-258.7      -194.6,-250.2 -195.2,-238.9    " style="fill: #134563;"/></g></g>
	<metadata>
		<rdf:RDF xmlns:rdf="http://www.w3.org/1999/02/22-rdf-syntax-ns#" xmlns:rdfs="http://www.w3.org/2000/01/rdf-schema#" xmlns:dc="http://purl.org/dc/elements/1.1/">
			<rdf:Description about="https://iconscout.com/legal#licenses" dc:title="1814088,attention,exclamation,warning" dc:description="1814088,attention,exclamation,warning" dc:publisher="Iconscout" dc:date="2017-02-06" dc:format="image/svg+xml" dc:language="en">
				<dc:creator>
					<rdf:Bag>
						<rdf:li>Evil Icons</rdf:li>
					</rdf:Bag>
				</dc:creator>
			</rdf:Description>
		</rdf:RDF>
    </metadata></svg>
