<?xml version="1.0"?>
<!DOCTYPE svg PUBLIC "-//W3C//DTD SVG 1.1//EN" "http://www.w3.org/Graphics/SVG/1.1/DTD/svg11.dtd">
<svg xmlns="http://www.w3.org/2000/svg" xmlns:xlink="http://www.w3.org/1999/xlink" id="Layer_1" style="enable-background:new 0 0 64 64;" version="1.1" viewBox="0 0 64 64" xml:space="preserve"><style type="text/css">
	.st0{fill:#134563;}
</style><g><g id="Icon-Play" transform="translate(128.000000, 278.000000)"><path class="st0" d="M-95.9-222c-13.2,0-23.9-10.7-23.9-23.9s10.7-23.9,23.9-23.9S-72-259.1-72-245.9     S-82.7-222-95.9-222L-95.9-222z M-95.9-267.2c-11.7,0-21.3,9.6-21.3,21.3c0,11.7,9.6,21.3,21.3,21.3s21.3-9.6,21.3-21.3     C-74.6-257.7-84.2-267.2-95.9-267.2L-95.9-267.2z" id="Fill-124" style="fill: #134563;"/><path class="st0" d="M-103-233.6v-24.7l21.2,12.4L-103-233.6L-103-233.6z M-100.2-253.4v14.9l12.7-7.4     L-100.2-253.4L-100.2-253.4z" id="Fill-125" style="fill: #134563;"/></g></g>
	<metadata>
		<rdf:RDF xmlns:rdf="http://www.w3.org/1999/02/22-rdf-syntax-ns#" xmlns:rdfs="http://www.w3.org/2000/01/rdf-schema#" xmlns:dc="http://purl.org/dc/elements/1.1/">
			<rdf:Description about="https://iconscout.com/legal#licenses" dc:title="1814112,audio,play,player,video" dc:description="1814112,audio,play,player,video" dc:publisher="Iconscout" dc:date="2017-02-06" dc:format="image/svg+xml" dc:language="en">
				<dc:creator>
					<rdf:Bag>
						<rdf:li>Evil Icons</rdf:li>
					</rdf:Bag>
				</dc:creator>
			</rdf:Description>
		</rdf:RDF>
    </metadata></svg>
