<?xml version="1.0"?>
<!DOCTYPE svg PUBLIC "-//W3C//DTD SVG 1.1//EN" "http://www.w3.org/Graphics/SVG/1.1/DTD/svg11.dtd">
<svg xmlns="http://www.w3.org/2000/svg" xmlns:xlink="http://www.w3.org/1999/xlink" id="Layer_1" style="enable-background:new 0 0 64 64;" version="1.1" viewBox="0 0 64 64" xml:space="preserve"><style type="text/css">
	.st0{fill:#134563;}
</style><g><g id="Icon-Archive" transform="translate(378.000000, 482.000000)"><path class="st0" d="M-322-458.5h-2.8v-7.1c0-0.8-0.6-1.4-1.4-1.4h-39.5c-0.8,0-1.4,0.6-1.4,1.4v7.1h-2.8v-7.1     c0-2.3,1.9-4.2,4.2-4.2h39.5c2.3,0,4.2,1.9,4.2,4.2V-458.5" id="Fill-180" style="fill: #134563;"/><path class="st0" d="M-329.1-430.2h-33.9c-2.3,0-4.2-1.9-4.2-4.2v-24h2.8v24c0,0.8,0.6,1.4,1.4,1.4h33.9     c0.8,0,1.4-0.6,1.4-1.4v-24h2.8v24C-324.8-432.1-326.7-430.2-329.1-430.2" id="Fill-181" style="fill: #134563;"/><path class="st0" d="M-340.4-450h-11.3c-0.8,0-1.4-0.6-1.4-1.4s0.6-1.4,1.4-1.4h11.3c0.8,0,1.4,0.6,1.4,1.4     S-339.6-450-340.4-450" id="Fill-182" style="fill: #134563;"/><polygon class="st0" id="Fill-183" points="-370,-461.3 -322,-461.3 -322,-458.5 -370,-458.5    " style="fill: #134563;"/></g></g>
	<metadata>
		<rdf:RDF xmlns:rdf="http://www.w3.org/1999/02/22-rdf-syntax-ns#" xmlns:rdfs="http://www.w3.org/2000/01/rdf-schema#" xmlns:dc="http://purl.org/dc/elements/1.1/">
			<rdf:Description about="https://iconscout.com/legal#licenses" dc:title="1814092,box,files,storage" dc:description="1814092,box,files,storage" dc:publisher="Iconscout" dc:date="2017-02-06" dc:format="image/svg+xml" dc:language="en">
				<dc:creator>
					<rdf:Bag>
						<rdf:li>Evil Icons</rdf:li>
					</rdf:Bag>
				</dc:creator>
			</rdf:Description>
		</rdf:RDF>
    </metadata></svg>
