<?xml version="1.0"?>
<!DOCTYPE svg PUBLIC "-//W3C//DTD SVG 1.1//EN" "http://www.w3.org/Graphics/SVG/1.1/DTD/svg11.dtd">
<svg xmlns="http://www.w3.org/2000/svg" xmlns:xlink="http://www.w3.org/1999/xlink" id="Layer_1" style="enable-background:new 0 0 64 64;" version="1.1" viewBox="0 0 64 64" xml:space="preserve"><style type="text/css">
	.st0{fill:#134563;}
</style><g><g id="Icon-Pointer" transform="translate(232.000000, 478.000000)"><path class="st0" d="M-185.6-421.9h-19.3c-0.9,0-1.6-0.7-1.6-1.6c0-2.5-1.2-3.9-3-6.1c-1-1.2-2.1-2.6-3.2-4.3     c-3-4.9-5.7-10.5-6.3-12.7c-0.6-2.2-0.2-3.5,0.4-4.3c0.7-1,1.9-1.5,3.3-1.5c1.9,0,3.9,1.6,5.6,3.7v-16.5c0-2.7,2.2-4.8,4.8-4.8     s4.8,2.2,4.8,4.8v6.7c0.5-0.2,1-0.3,1.6-0.3c1.7,0,3.2,0.9,4.1,2.2c0.7-0.4,1.5-0.6,2.4-0.6c2.2,0,4.1,1.5,4.6,3.5     c0.5-0.2,1.1-0.3,1.8-0.3c2.7,0,4.8,2.2,4.8,4.8v4.8c0,4.1-0.8,7.5-1.6,10.7c-0.8,3.3-1.6,6.3-1.6,10.1     C-184-422.7-184.7-421.9-185.6-421.9L-185.6-421.9z M-203.3-425.1h16.2c0.2-3.5,0.9-6.4,1.6-9.3c0.8-3.2,1.5-6.3,1.5-10v-5.1     c0-0.9-0.7-1.6-1.6-1.6s-1.6,0.7-1.6,1.6v1.9c0,0.9-0.7,1.6-1.6,1.6s-1.6-0.7-1.6-1.6v-5.1c0-0.9-0.7-1.6-1.6-1.6     s-1.6,0.7-1.6,1.6v3.5c0,0.9-0.7,1.6-1.6,1.6s-1.6-0.7-1.6-1.6v-5.1c0-0.9-0.7-1.6-1.6-1.6s-1.6,0.7-1.6,1.6v3.5     c0,0.9-0.7,1.6-1.6,1.6s-1.6-0.7-1.6-1.6v-14.8c0-0.9-0.7-1.6-1.6-1.6s-1.6,0.7-1.6,1.6v24.4c0,0.9-0.7,1.6-1.6,1.6     s-1.6-0.7-1.6-1.6v-1.3c-1.4-3.7-4.6-6.9-5.6-6.9c-0.4,0-0.6,0.1-0.7,0.4c-0.1,0.2-0.2,0.7,0,1.4c0.5,1.7,3,6.9,6.1,12     c1,1.6,2,2.8,3,4C-205.2-429.6-203.8-427.8-203.3-425.1L-203.3-425.1z" id="Fill-173" style="fill: #134563;"/></g></g>
	<metadata>
		<rdf:RDF xmlns:rdf="http://www.w3.org/1999/02/22-rdf-syntax-ns#" xmlns:rdfs="http://www.w3.org/2000/01/rdf-schema#" xmlns:dc="http://purl.org/dc/elements/1.1/">
			<rdf:Description about="https://iconscout.com/legal#licenses" dc:title="1814103,click,finger,touch" dc:description="1814103,click,finger,touch" dc:publisher="Iconscout" dc:date="2017-02-06" dc:format="image/svg+xml" dc:language="en">
				<dc:creator>
					<rdf:Bag>
						<rdf:li>Evil Icons</rdf:li>
					</rdf:Bag>
				</dc:creator>
			</rdf:Description>
		</rdf:RDF>
    </metadata></svg>
