<?xml version="1.0"?>
<!DOCTYPE svg PUBLIC "-//W3C//DTD SVG 1.1//EN" "http://www.w3.org/Graphics/SVG/1.1/DTD/svg11.dtd">
<svg xmlns="http://www.w3.org/2000/svg" xmlns:xlink="http://www.w3.org/1999/xlink" id="Layer_1" style="enable-background:new 0 0 64 64;" version="1.1" viewBox="0 0 64 64" xml:space="preserve"><style type="text/css">
	.st0{fill:#134563;}
</style><g><g id="Icon-Tag" transform="translate(79.000000, 382.000000)"><path class="st0" d="M-51-328.9c-1.3,0-2.5-0.5-3.4-1.4l-13.3-13.3c-1.9-1.9-1.9-4.9,0-6.8l17.8-17.8     c1.6-1.6,4.5-2.8,6.7-2.8h11.4c2.6,0,4.8,2.2,4.8,4.8v11.4c0,2.2-1.2,5.1-2.8,6.7l-17.8,17.8C-48.5-329.4-49.7-328.9-51-328.9     L-51-328.9z M-43.2-368c-1.4,0-3.6,0.9-4.6,1.9l-17.8,17.8c-0.7,0.7-0.7,1.8,0,2.5l13.3,13.3c0.7,0.7,1.9,0.7,2.5,0l17.8-17.8     c1-1,1.9-3.1,1.9-4.6v-11.4c0-1-0.8-1.8-1.8-1.8H-43.2L-43.2-368z" id="Fill-129" style="fill: #134563;"/><path class="st0" d="M-39-353.1c-3.2,0-5.9-2.6-5.9-5.9c0-3.2,2.6-5.9,5.9-5.9c3.2,0,5.9,2.6,5.9,5.9     C-33.1-355.8-35.7-353.1-39-353.1L-39-353.1z M-39-362.1c-1.7,0-3.1,1.4-3.1,3.1c0,1.7,1.4,3.1,3.1,3.1c1.7,0,3.1-1.4,3.1-3.1     C-35.9-360.7-37.3-362.1-39-362.1L-39-362.1z" id="Fill-130" style="fill: #134563;"/></g></g>
	<metadata>
		<rdf:RDF xmlns:rdf="http://www.w3.org/1999/02/22-rdf-syntax-ns#" xmlns:rdfs="http://www.w3.org/2000/01/rdf-schema#" xmlns:dc="http://purl.org/dc/elements/1.1/">
			<rdf:Description about="https://iconscout.com/legal#licenses" dc:title="1814073,discount,price,tag" dc:description="1814073,discount,price,tag" dc:publisher="Iconscout" dc:date="2017-02-06" dc:format="image/svg+xml" dc:language="en">
				<dc:creator>
					<rdf:Bag>
						<rdf:li>Evil Icons</rdf:li>
					</rdf:Bag>
				</dc:creator>
			</rdf:Description>
		</rdf:RDF>
    </metadata></svg>
