<?xml version="1.0"?>
<!DOCTYPE svg PUBLIC "-//W3C//DTD SVG 1.1//EN" "http://www.w3.org/Graphics/SVG/1.1/DTD/svg11.dtd">
<svg xmlns="http://www.w3.org/2000/svg" xmlns:xlink="http://www.w3.org/1999/xlink" id="Layer_1" style="enable-background:new 0 0 64 64;" version="1.1" viewBox="0 0 64 64" xml:space="preserve"><style type="text/css">
	.st0{fill:#134563;}
</style><g><g id="Icon-Refresh" transform="translate(30.000000, 432.000000)"><path class="st0" d="M2-379.3c-11.4,0-20.7-9.3-20.7-20.7c0-5,1.8-9.9,5.2-13.7l2.2,2c-2.9,3.2-4.4,7.4-4.4,11.7     c0,9.8,7.9,17.7,17.7,17.7c2.6,0,5.1-0.5,7.4-1.6l1.2,2.7C7.9-379.9,5-379.3,2-379.3" id="Fill-77" style="fill: #134563;"/><path class="st0" d="M17.4-386.2l-2.2-2c2.9-3.2,4.5-7.4,4.5-11.8c0-9.8-7.9-17.7-17.7-17.7c-2.6,0-5.1,0.5-7.4,1.6     l-1.2-2.7c2.7-1.2,5.6-1.9,8.6-1.9c11.4,0,20.7,9.3,20.7,20.7C22.7-394.9,20.8-390,17.4-386.2" id="Fill-78" style="fill: #134563;"/><polyline class="st0" id="Fill-79" points="-9.2,-401.6 -12.4,-401.6 -12.4,-411.2 -22,-411.2 -22,-414.4 -9.2,-414.4      -9.2,-401.6    " style="fill: #134563;"/><polyline class="st0" id="Fill-80" points="26,-385.6 13.2,-385.6 13.2,-398.4 16.4,-398.4 16.4,-388.8 26,-388.8 26,-385.6         " style="fill: #134563;"/></g></g>
	<metadata>
		<rdf:RDF xmlns:rdf="http://www.w3.org/1999/02/22-rdf-syntax-ns#" xmlns:rdfs="http://www.w3.org/2000/01/rdf-schema#" xmlns:dc="http://purl.org/dc/elements/1.1/">
			<rdf:Description about="https://iconscout.com/legal#licenses" dc:title="1814077,download,loop,recycle,repeat" dc:description="1814077,download,loop,recycle,repeat" dc:publisher="Iconscout" dc:date="2017-02-06" dc:format="image/svg+xml" dc:language="en">
				<dc:creator>
					<rdf:Bag>
						<rdf:li>Evil Icons</rdf:li>
					</rdf:Bag>
				</dc:creator>
			</rdf:Description>
		</rdf:RDF>
    </metadata></svg>
