<?xml version="1.0"?>
<!DOCTYPE svg PUBLIC "-//W3C//DTD SVG 1.1//EN" "http://www.w3.org/Graphics/SVG/1.1/DTD/svg11.dtd">
<svg xmlns="http://www.w3.org/2000/svg" xmlns:xlink="http://www.w3.org/1999/xlink" id="Layer_1" style="enable-background:new 0 0 64 64;" version="1.1" viewBox="0 0 64 64" xml:space="preserve"><style type="text/css">
	.st0{fill:#134563;}
</style><g><g id="Icon-Share-Apple" transform="translate(332.000000, 375.000000)"><polyline class="st0" id="Fill-74" points="-292.6,-355.7 -300,-363.1 -307.4,-355.7 -309.2,-357.5 -300,-366.8 -290.8,-357.5      -292.6,-355.7    " style="fill: #134563;"/><polygon class="st0" id="Fill-75" points="-301.4,-364.9 -298.6,-364.9 -298.6,-335.9 -301.4,-335.9    " style="fill: #134563;"/><path class="st0" d="M-286.2-319.2h-27.7c-2.3,0-4.2-1.9-4.2-4.2v-24.9c0-2.3,1.9-4.2,4.2-4.2h9.7v2.8h-9.7     c-0.8,0-1.4,0.6-1.4,1.4v24.9c0,0.8,0.6,1.4,1.4,1.4h27.7c0.8,0,1.4-0.6,1.4-1.4v-24.9c0-0.8-0.6-1.4-1.4-1.4h-9.7v-2.8h9.7     c2.3,0,4.2,1.9,4.2,4.2v24.9C-282-321.1-283.9-319.2-286.2-319.2" id="Fill-76" style="fill: #134563;"/></g></g>
	<metadata>
		<rdf:RDF xmlns:rdf="http://www.w3.org/1999/02/22-rdf-syntax-ns#" xmlns:rdfs="http://www.w3.org/2000/01/rdf-schema#" xmlns:dc="http://purl.org/dc/elements/1.1/">
			<rdf:Description about="https://iconscout.com/legal#licenses" dc:title="1814121,upload" dc:description="1814121,upload" dc:publisher="Iconscout" dc:date="2017-02-06" dc:format="image/svg+xml" dc:language="en">
				<dc:creator>
					<rdf:Bag>
						<rdf:li>Evil Icons</rdf:li>
					</rdf:Bag>
				</dc:creator>
			</rdf:Description>
		</rdf:RDF>
    </metadata></svg>
